<?xml version="1.0" encoding="UTF-8"?>
<!DOCTYPE svg PUBLIC "-//W3C//DTD SVG 1.1//EN" "http://www.w3.org/Graphics/SVG/1.1/DTD/svg11.dtd">
<svg xmlns="http://www.w3.org/2000/svg" version="1.1" width="697px" height="773px" style="shape-rendering:geometricPrecision; text-rendering:geometricPrecision; image-rendering:optimizeQuality; fill-rule:evenodd; clip-rule:evenodd" xmlns:xlink="http://www.w3.org/1999/xlink">
<g><path style="opacity:1" fill="#0b4e64" d="M 153.5,48.5 C 278.19,48.0146 402.856,48.5146 527.5,50C 582.826,61.3246 619.326,93.8246 637,147.5C 639.748,157.32 641.415,167.32 642,177.5C 642.667,322.167 642.667,466.833 642,611.5C 637.242,665.552 610.742,704.719 562.5,729C 546.906,735.982 530.573,739.982 513.5,741C 395.5,741.667 277.5,741.667 159.5,741C 106.868,735.953 68.3684,710.12 44,663.5C 36.2404,647.039 31.907,629.705 31,611.5C 30.0169,463.15 30.3503,314.817 32,166.5C 42.439,108.728 75.6057,70.8952 131.5,53C 138.931,51.281 146.265,49.781 153.5,48.5 Z"/></g>
<g><path style="opacity:1" fill="#237b99" d="M 198.5,83.5 C 293.167,83.3333 387.834,83.5 482.5,84C 544.495,92.9895 584.662,127.49 603,187.5C 604.647,194.07 605.647,200.736 606,207.5C 606.667,286.5 606.667,365.5 606,444.5C 600.465,496.776 574.298,534.61 527.5,558C 513.099,564.245 498.099,568.245 482.5,570C 386.833,570.667 291.167,570.667 195.5,570C 142.637,561.785 105.47,533.285 84,484.5C 79.2793,473.284 76.2793,461.617 75,449.5C 74.3333,367.5 74.3333,285.5 75,203.5C 82.8002,153.056 109.634,116.889 155.5,95C 169.385,88.9743 183.718,85.141 198.5,83.5 Z"/></g>
<g><path style="opacity:1" fill="#fa9c8c" d="M 239.5,177.5 C 252.833,177.5 266.167,177.5 279.5,177.5C 279.5,190.833 279.5,204.167 279.5,217.5C 292.833,217.5 306.167,217.5 319.5,217.5C 319.5,230.833 319.5,244.167 319.5,257.5C 279.833,257.5 240.167,257.5 200.5,257.5C 200.5,244.167 200.5,230.833 200.5,217.5C 213.5,217.5 226.5,217.5 239.5,217.5C 239.5,204.167 239.5,190.833 239.5,177.5 Z"/></g>
<g><path style="opacity:1" fill="#a78b94" d="M 239.5,177.5 C 252.99,176.504 266.656,176.171 280.5,176.5C 280.5,189.833 280.5,203.167 280.5,216.5C 294.01,216.171 307.344,216.504 320.5,217.5C 320.167,217.5 319.833,217.5 319.5,217.5C 306.167,217.5 292.833,217.5 279.5,217.5C 279.5,204.167 279.5,190.833 279.5,177.5C 266.167,177.5 252.833,177.5 239.5,177.5 Z"/></g>
<g><path style="opacity:1" fill="#a78b94" d="M 400.5,177.5 C 413.99,176.504 427.656,176.171 441.5,176.5C 441.5,189.833 441.5,203.167 441.5,216.5C 455.01,216.171 468.344,216.504 481.5,217.5C 481.167,217.5 480.833,217.5 480.5,217.5C 467.167,217.5 453.833,217.5 440.5,217.5C 440.5,204.167 440.5,190.833 440.5,177.5C 427.167,177.5 413.833,177.5 400.5,177.5 Z"/></g>
<g><path style="opacity:1" fill="#fa9c8c" d="M 400.5,177.5 C 413.833,177.5 427.167,177.5 440.5,177.5C 440.5,190.833 440.5,204.167 440.5,217.5C 453.833,217.5 467.167,217.5 480.5,217.5C 480.5,230.833 480.5,244.167 480.5,257.5C 467.496,257.333 454.496,257.5 441.5,258C 467.831,258.5 494.165,258.667 520.5,258.5C 520.5,271.5 520.5,284.5 520.5,297.5C 454.166,297.667 387.832,297.5 321.5,297C 320.511,284.246 320.178,271.413 320.5,258.5C 347.169,258.667 373.835,258.5 400.5,258C 387.504,257.5 374.504,257.333 361.5,257.5C 361.5,244.167 361.5,230.833 361.5,217.5C 374.5,217.5 387.5,217.5 400.5,217.5C 400.5,204.167 400.5,190.833 400.5,177.5 Z"/></g>
<g><path style="opacity:1" fill="#f49b8c" d="M 200.5,217.5 C 200.5,230.833 200.5,244.167 200.5,257.5C 240.167,257.5 279.833,257.5 319.5,257.5C 319.5,244.167 319.5,230.833 319.5,217.5C 319.833,217.5 320.167,217.5 320.5,217.5C 320.5,230.833 320.5,244.167 320.5,257.5C 333.833,257.5 347.167,257.5 360.5,257.5C 360.171,243.99 360.504,230.656 361.5,217.5C 361.5,230.833 361.5,244.167 361.5,257.5C 374.504,257.333 387.504,257.5 400.5,258C 373.835,258.5 347.169,258.667 320.5,258.5C 320.178,271.413 320.511,284.246 321.5,297C 387.832,297.5 454.166,297.667 520.5,297.5C 520.5,284.5 520.5,271.5 520.5,258.5C 494.165,258.667 467.831,258.5 441.5,258C 454.496,257.5 467.496,257.333 480.5,257.5C 480.5,244.167 480.5,230.833 480.5,217.5C 480.833,217.5 481.167,217.5 481.5,217.5C 481.5,230.833 481.5,244.167 481.5,257.5C 494.833,257.5 508.167,257.5 521.5,257.5C 521.5,283.833 521.5,310.167 521.5,336.5C 520.505,324.011 520.171,311.344 520.5,298.5C 494.167,298.5 467.833,298.5 441.5,298.5C 441.5,324.833 441.5,351.167 441.5,377.5C 454.5,377.5 467.5,377.5 480.5,377.5C 480.171,364.323 480.505,351.323 481.5,338.5C 481.5,351.833 481.5,365.167 481.5,378.5C 468.167,378.5 454.833,378.5 441.5,378.5C 441.167,378.5 440.833,378.5 440.5,378.5C 400.572,379.494 360.572,379.827 320.5,379.5C 320.5,392.167 320.5,404.833 320.5,417.5C 360.337,417.168 400.004,417.501 439.5,418.5C 426.323,418.171 413.323,418.505 400.5,419.5C 373.833,419.5 347.167,419.5 320.5,419.5C 320.167,470.167 319.833,470.167 319.5,419.5C 306.421,419.814 293.421,419.48 280.5,418.5C 280.167,418.5 279.833,418.5 279.5,418.5C 266.833,418.5 254.167,418.5 241.5,418.5C 267.328,417.502 293.328,417.169 319.5,417.5C 319.5,404.833 319.5,392.167 319.5,379.5C 293.259,379.828 267.092,379.495 241,378.5C 240.5,391.829 240.333,405.163 240.5,418.5C 239.504,405.344 239.171,392.01 239.5,378.5C 226.167,378.5 212.833,378.5 199.5,378.5C 199.5,365.167 199.5,351.833 199.5,338.5C 199.5,338.167 199.5,337.833 199.5,337.5C 198.52,324.579 198.186,311.579 198.5,298.5C 147.833,298.167 147.833,297.833 198.5,297.5C 198.178,284.587 198.511,271.754 199.5,259C 186.171,258.5 172.837,258.333 159.5,258.5C 159.5,258.167 159.5,257.833 159.5,257.5C 172.833,257.5 186.167,257.5 199.5,257.5C 199.171,243.99 199.504,230.656 200.5,217.5 Z"/></g>
<g><path style="opacity:1" fill="#fa9d8b" d="M 200.5,258.5 C 240.167,258.5 279.833,258.5 319.5,258.5C 319.5,271.5 319.5,284.5 319.5,297.5C 279.833,297.5 240.167,297.5 200.5,297.5C 200.5,284.5 200.5,271.5 200.5,258.5 Z"/></g>
<g><path style="opacity:1" fill="#fb9d8b" d="M 159.5,258.5 C 172.837,258.333 186.171,258.5 199.5,259C 198.511,271.754 198.178,284.587 198.5,297.5C 147.833,297.833 147.833,298.167 198.5,298.5C 198.186,311.579 198.52,324.579 199.5,337.5C 186.167,337.5 172.833,337.5 159.5,337.5C 159.5,311.167 159.5,284.833 159.5,258.5 Z"/></g>
<g><path style="opacity:1" fill="#fb9d8b" d="M 200.5,298.5 C 240.167,298.5 279.833,298.5 319.5,298.5C 319.5,324.833 319.5,351.167 319.5,377.5C 279.833,377.5 240.167,377.5 200.5,377.5C 200.5,351.167 200.5,324.833 200.5,298.5 Z"/></g>
<g><path style="opacity:1" fill="#fa9d8b" d="M 320.5,298.5 C 360.5,298.5 400.5,298.5 440.5,298.5C 440.5,324.833 440.5,351.167 440.5,377.5C 400.5,377.5 360.5,377.5 320.5,377.5C 320.5,351.167 320.5,324.833 320.5,298.5 Z"/></g>
<g><path style="opacity:1" fill="#fa9c8c" d="M 521.5,336.5 C 508.542,338.481 495.209,339.148 481.5,338.5C 480.505,351.323 480.171,364.323 480.5,377.5C 467.5,377.5 454.5,377.5 441.5,377.5C 441.5,351.167 441.5,324.833 441.5,298.5C 467.833,298.5 494.167,298.5 520.5,298.5C 520.171,311.344 520.505,324.011 521.5,336.5 Z"/></g>
<g><path style="opacity:1" fill="#b78d93" d="M 159.5,257.5 C 159.5,257.833 159.5,258.167 159.5,258.5C 159.5,284.833 159.5,311.167 159.5,337.5C 172.833,337.5 186.167,337.5 199.5,337.5C 199.5,337.833 199.5,338.167 199.5,338.5C 185.833,338.5 172.167,338.5 158.5,338.5C 158.169,311.328 158.502,284.328 159.5,257.5 Z"/></g>
<g><path style="opacity:1" fill="#fb9d8b" d="M 241.5,418.5 C 241.167,418.5 240.833,418.5 240.5,418.5C 240.333,405.163 240.5,391.829 241,378.5C 267.092,379.495 293.259,379.828 319.5,379.5C 319.5,392.167 319.5,404.833 319.5,417.5C 293.328,417.169 267.328,417.502 241.5,418.5 Z"/></g>
<g><path style="opacity:1" fill="#fb9d8b" d="M 440.5,378.5 C 440.829,392.01 440.496,405.344 439.5,418.5C 400.004,417.501 360.337,417.168 320.5,417.5C 320.5,404.833 320.5,392.167 320.5,379.5C 360.572,379.827 400.572,379.494 440.5,378.5 Z"/></g>
<g><path style="opacity:1" fill="#fa9c8c" d="M 280.5,418.5 C 293.421,419.48 306.421,419.814 319.5,419.5C 319.833,470.167 320.167,470.167 320.5,419.5C 347.167,419.5 373.833,419.5 400.5,419.5C 400.5,432.5 400.5,445.5 400.5,458.5C 387.167,458.5 373.833,458.5 360.5,458.5C 360.5,472.167 360.5,485.833 360.5,499.5C 347.167,499.5 333.833,499.5 320.5,499.5C 320.5,486.167 320.5,472.833 320.5,459.5C 307.344,458.504 294.01,458.171 280.5,458.5C 280.5,445.167 280.5,431.833 280.5,418.5 Z"/></g>
<g><path style="opacity:1" fill="#978895" d="M 440.5,378.5 C 440.833,378.5 441.167,378.5 441.5,378.5C 441.5,392.167 441.5,405.833 441.5,419.5C 428.167,419.5 414.833,419.5 401.5,419.5C 401.5,432.833 401.5,446.167 401.5,459.5C 388.167,459.5 374.833,459.5 361.5,459.5C 361.829,473.01 361.496,486.344 360.5,499.5C 360.5,485.833 360.5,472.167 360.5,458.5C 373.833,458.5 387.167,458.5 400.5,458.5C 400.5,445.5 400.5,432.5 400.5,419.5C 413.323,418.505 426.323,418.171 439.5,418.5C 440.496,405.344 440.829,392.01 440.5,378.5 Z"/></g>
<g><path style="opacity:1" fill="#b18c93" d="M 279.5,418.5 C 279.833,418.5 280.167,418.5 280.5,418.5C 280.5,431.833 280.5,445.167 280.5,458.5C 294.01,458.171 307.344,458.504 320.5,459.5C 306.833,459.5 293.167,459.5 279.5,459.5C 279.5,445.833 279.5,432.167 279.5,418.5 Z"/></g>
</svg>
